<svg xmlns="http://www.w3.org/2000/svg" width="2048" height="1536" viewBox="0 0 2048 1536"><g transform="translate(0 0)"><polygon points="194.645,141.510 154.706,190.536 87.688,166.871 58.503,119.620 111.211,70.397 158.004,88.003" fill="none" stroke="white" stroke-width="10" stroke-linejoin="round"/><circle cx="128" cy="128" r="18" fill="white" opacity=".82"/><text x="128" y="230" text-anchor="middle" font-size="42" fill="white">◆</text></g><g transform="translate(256 0)"><polygon points="189.802,132.955 147.715,186.782 80.976,177.120 77.490,115.639 109.557,73.010 155.000,81.235" fill="none" stroke="white" stroke-width="10" stroke-linejoin="round"/><circle cx="128" cy="128" r="18" fill="white" opacity=".82"/><text x="128" y="230" text-anchor="middle" font-size="42" fill="white">✦</text></g><g transform="translate(512 0)"><polygon points="193.157,138.515 150.259,194.367 87.688,166.871 82.331,122.493 103.107,75.614 159.000,74.306" fill="none" stroke="white" stroke-width="10" stroke-linejoin="round"/><circle cx="128" cy="128" r="18" fill="white" opacity=".82"/><text x="128" y="230" text-anchor="middle" font-size="42" fill="white">☉</text></g><g transform="translate(768 0)"><polygon points="171.965,129.760 144.359,170.993 87.578,177.620 78.997,118.067 103.816,64.446 151.840,93.421" fill="none" stroke="white" stroke-width="10" stroke-linejoin="round"/><circle cx="128" cy="128" r="18" fill="white" opacity=".82"/><text x="128" y="230" text-anchor="middle" font-size="42" fill="white">✹</text></g><g transform="translate(1024 0)"><polygon points="180.452,140.836 147.205,178.470 94.878,180.411 59.395,114.093 115.688,85.758 167.605,75.204" fill="none" stroke="white" stroke-width="10" stroke-linejoin="round"/><circle cx="128" cy="128" r="18" fill="white" opacity=".82"/><text x="128" y="230" text-anchor="middle" font-size="42" fill="white">◇</text></g><g transform="translate(1280 0)"><polygon points="175.655,133.746 157.000,178.229 101.890,165.872 60.054,125.281 106.377,63.529 162.805,81.603" fill="none" stroke="white" stroke-width="10" stroke-linejoin="round"/><circle cx="128" cy="128" r="18" fill="white" opacity=".82"/><text x="128" y="230" text-anchor="middle" font-size="42" fill="white">†</text></g><g transform="translate(1536 0)"><polygon points="171.965,129.760 141.431,174.083 95.000,185.158 79.433,116.115 103.816,64.446 163.192,76.956" fill="none" stroke="white" stroke-width="10" stroke-linejoin="round"/><circle cx="128" cy="128" r="18" fill="white" opacity=".82"/><text x="128" y="230" text-anchor="middle" font-size="42" fill="white">⛓</text></g><g transform="translate(1792 0)"><polygon points="193.157,138.515 145.280,168.465 92.631,171.417 64.460,120.338 109.934,85.696 173.022,77.039" fill="none" stroke="white" stroke-width="10" stroke-linejoin="round"/><circle cx="128" cy="128" r="18" fill="white" opacity=".82"/><text x="128" y="230" text-anchor="middle" font-size="42" fill="white">☾</text></g><g transform="translate(0 256)"><polygon points="181.819,143.476 150.050,185.947 89.275,168.452 66.446,120.578 109.116,88.259 167.605,75.204" fill="none" stroke="white" stroke-width="10" stroke-linejoin="round"/><circle cx="128" cy="128" r="18" fill="white" opacity=".82"/><text x="128" y="230" text-anchor="middle" font-size="42" fill="white">♮</text></g><g transform="translate(256 256)"><polygon points="197.196,147.898 147.715,186.782 101.890,165.872 60.054,125.281 112.101,80.595 160.054,77.280" fill="none" stroke="white" stroke-width="10" stroke-linejoin="round"/><circle cx="128" cy="128" r="18" fill="white" opacity=".82"/><text x="128" y="230" text-anchor="middle" font-size="42" fill="white">⬡</text></g><g transform="translate(512 256)"><polygon points="170.000,128.000 150.318,174.967 96.220,163.973 74.043,125.841 112.890,76.157 164.632,83.032" fill="none" stroke="white" stroke-width="10" stroke-linejoin="round"/><circle cx="128" cy="128" r="18" fill="white" opacity=".82"/><text x="128" y="230" text-anchor="middle" font-size="42" fill="white">☠</text></g><g transform="translate(768 256)"><polygon points="187.952,130.399 139.577,174.583 107.000,164.373 70.000,128.000 106.000,89.895 158.004,88.003" fill="none" stroke="white" stroke-width="10" stroke-linejoin="round"/><circle cx="128" cy="128" r="18" fill="white" opacity=".82"/><text x="128" y="230" text-anchor="middle" font-size="42" fill="white">☼</text></g><g transform="translate(1024 256)"><polygon points="175.655,133.746 143.669,181.763 92.741,183.792 61.949,111.836 105.105,59.737 175.511,82.188" fill="none" stroke="white" stroke-width="10" stroke-linejoin="round"/><circle cx="128" cy="128" r="18" fill="white" opacity=".82"/><text x="128" y="230" text-anchor="middle" font-size="42" fill="white">◐</text></g><g transform="translate(1280 256)"><polygon points="181.819,143.476 145.908,189.443 94.807,162.673 60.054,125.281 107.013,65.426 153.643,87.424" fill="none" stroke="white" stroke-width="10" stroke-linejoin="round"/><circle cx="128" cy="128" r="18" fill="white" opacity=".82"/><text x="128" y="230" text-anchor="middle" font-size="42" fill="white">⚚</text></g><g transform="translate(1536 256)"><polygon points="187.952,130.399 147.715,186.782 83.742,174.231 80.957,118.464 103.651,70.981 154.527,95.437" fill="none" stroke="white" stroke-width="10" stroke-linejoin="round"/><circle cx="128" cy="128" r="18" fill="white" opacity=".82"/><text x="128" y="230" text-anchor="middle" font-size="42" fill="white">✷</text></g><g transform="translate(1792 256)"><polygon points="195.994,144.639 145.366,197.874 95.596,171.197 66.446,120.578 103.107,75.614 157.917,80.661" fill="none" stroke="white" stroke-width="10" stroke-linejoin="round"/><circle cx="128" cy="128" r="18" fill="white" opacity=".82"/><text x="128" y="230" text-anchor="middle" font-size="42" fill="white">⌁</text></g><g transform="translate(0 512)"><polygon points="180.452,140.836 157.000,178.229 83.742,174.231 59.395,114.093 109.532,64.636 158.985,78.970" fill="none" stroke="white" stroke-width="10" stroke-linejoin="round"/><circle cx="128" cy="128" r="18" fill="white" opacity=".82"/><text x="128" y="230" text-anchor="middle" font-size="42" fill="white">◆</text></g><g transform="translate(256 512)"><polygon points="191.540,135.662 145.366,197.874 87.688,166.871 72.403,121.296 113.528,69.771 157.516,85.188" fill="none" stroke="white" stroke-width="10" stroke-linejoin="round"/><circle cx="128" cy="128" r="18" fill="white" opacity=".82"/><text x="128" y="230" text-anchor="middle" font-size="42" fill="white">✦</text></g><g transform="translate(512 512)"><polygon points="175.655,133.746 152.895,193.424 100.396,164.797 64.051,125.441 100.509,63.624 158.456,93.526" fill="none" stroke="white" stroke-width="10" stroke-linejoin="round"/><circle cx="128" cy="128" r="18" fill="white" opacity=".82"/><text x="128" y="230" text-anchor="middle" font-size="42" fill="white">☉</text></g><g transform="translate(768 512)"><polygon points="175.655,133.746 143.669,181.763 101.288,170.267 82.147,124.324 97.098,62.969 158.427,96.217" fill="none" stroke="white" stroke-width="10" stroke-linejoin="round"/><circle cx="128" cy="128" r="18" fill="white" opacity=".82"/><text x="128" y="230" text-anchor="middle" font-size="42" fill="white">✹</text></g><g transform="translate(1024 512)"><polygon points="195.994,144.639 147.715,186.782 97.349,172.458 84.316,122.733 107.541,89.046 165.462,73.662" fill="none" stroke="white" stroke-width="10" stroke-linejoin="round"/><circle cx="128" cy="128" r="18" fill="white" opacity=".82"/><text x="128" y="230" text-anchor="middle" font-size="42" fill="white">◇</text></g><g transform="translate(1280 512)"><polygon points="173.853,131.676 161.000,185.158 84.808,169.647 64.817,117.804 105.222,74.660 163.259,72.208" fill="none" stroke="white" stroke-width="10" stroke-linejoin="round"/><circle cx="128" cy="128" r="18" fill="white" opacity=".82"/><text x="128" y="230" text-anchor="middle" font-size="42" fill="white">†</text></g><g transform="translate(1536 512)"><polygon points="186.000,128.000 151.248,172.266 103.425,166.886 58.056,125.201 113.450,78.077 161.604,83.203" fill="none" stroke="white" stroke-width="10" stroke-linejoin="round"/><circle cx="128" cy="128" r="18" fill="white" opacity=".82"/><text x="128" y="230" text-anchor="middle" font-size="42" fill="white">⛓</text></g><g transform="translate(1792 512)"><polygon points="173.853,131.676 143.669,181.763 97.015,177.030 62.843,117.485 110.218,81.269 160.054,77.280" fill="none" stroke="white" stroke-width="10" stroke-linejoin="round"/><circle cx="128" cy="128" r="18" fill="white" opacity=".82"/><text x="128" y="230" text-anchor="middle" font-size="42" fill="white">☾</text></g><g transform="translate(0 768)"><polygon points="181.819,143.476 157.185,189.418 85.995,183.996 72.259,111.971 107.000,91.627 154.712,85.733" fill="none" stroke="white" stroke-width="10" stroke-linejoin="round"/><circle cx="128" cy="128" r="18" fill="white" opacity=".82"/><text x="128" y="230" text-anchor="middle" font-size="42" fill="white">♮</text></g><g transform="translate(256 768)"><polygon points="193.157,138.515 142.627,171.612 97.684,165.215 58.056,125.201 111.771,72.317 153.643,87.424" fill="none" stroke="white" stroke-width="10" stroke-linejoin="round"/><circle cx="128" cy="128" r="18" fill="white" opacity=".82"/><text x="128" y="230" text-anchor="middle" font-size="42" fill="white">⬡</text></g><g transform="translate(512 768)"><polygon points="181.819,143.476 150.050,185.947 101.890,165.872 66.050,125.521 98.815,66.582 160.404,84.803" fill="none" stroke="white" stroke-width="10" stroke-linejoin="round"/><circle cx="128" cy="128" r="18" fill="white" opacity=".82"/><text x="128" y="230" text-anchor="middle" font-size="42" fill="white">☠</text></g><g transform="translate(768 768)"><polygon points="178.963,138.331 153.752,182.193 97.573,159.783 76.000,128.000 108.285,69.218 165.895,81.482" fill="none" stroke="white" stroke-width="10" stroke-linejoin="round"/><circle cx="128" cy="128" r="18" fill="white" opacity=".82"/><text x="128" y="230" text-anchor="middle" font-size="42" fill="white">☼</text></g><g transform="translate(1024 768)"><polygon points="189.802,132.955 150.259,194.367 100.396,164.797 56.058,125.121 114.493,73.653 163.993,93.294" fill="none" stroke="white" stroke-width="10" stroke-linejoin="round"/><circle cx="128" cy="128" r="18" fill="white" opacity=".82"/><text x="128" y="230" text-anchor="middle" font-size="42" fill="white">◐</text></g><g transform="translate(1280 768)"><polygon points="191.540,135.662 143.437,190.110 78.210,180.009 79.947,114.182 103.816,64.446 160.921,80.249" fill="none" stroke="white" stroke-width="10" stroke-linejoin="round"/><circle cx="128" cy="128" r="18" fill="white" opacity=".82"/><text x="128" y="230" text-anchor="middle" font-size="42" fill="white">⚚</text></g><g transform="translate(1536 768)"><polygon points="180.452,140.836 161.000,185.158 102.797,161.598 56.000,128.000 113.528,69.771 164.005,80.004" fill="none" stroke="white" stroke-width="10" stroke-linejoin="round"/><circle cx="128" cy="128" r="18" fill="white" opacity=".82"/><text x="128" y="230" text-anchor="middle" font-size="42" fill="white">✷</text></g><g transform="translate(1792 768)"><polygon points="186.000,128.000 147.715,186.782 97.349,172.458 66.446,120.578 99.673,68.388 156.849,82.352" fill="none" stroke="white" stroke-width="10" stroke-linejoin="round"/><circle cx="128" cy="128" r="18" fill="white" opacity=".82"/><text x="128" y="230" text-anchor="middle" font-size="42" fill="white">⌁</text></g><g transform="translate(0 1024)"><polygon points="194.645,141.510 143.437,190.110 89.275,168.452 66.446,120.578 100.532,70.194 169.752,87.741" fill="none" stroke="white" stroke-width="10" stroke-linejoin="round"/><circle cx="128" cy="128" r="18" fill="white" opacity=".82"/><text x="128" y="230" text-anchor="middle" font-size="42" fill="white">◆</text></g><g transform="translate(256 1024)"><polygon points="173.853,131.676 149.000,164.373 95.000,185.158 69.720,113.738 95.452,66.027 166.401,84.533" fill="none" stroke="white" stroke-width="10" stroke-linejoin="round"/><circle cx="128" cy="128" r="18" fill="white" opacity=".82"/><text x="128" y="230" text-anchor="middle" font-size="42" fill="white">✦</text></g><g transform="translate(512 1024)"><polygon points="186.000,128.000 154.968,179.349 94.807,162.673 56.058,125.121 116.423,81.417 162.553,94.682" fill="none" stroke="white" stroke-width="10" stroke-linejoin="round"/><circle cx="128" cy="128" r="18" fill="white" opacity=".82"/><text x="128" y="230" text-anchor="middle" font-size="42" fill="white">☉</text></g><g transform="translate(768 1024)"><polygon points="181.819,143.476 152.895,193.424 100.396,164.797 68.048,125.601 108.471,90.816 163.259,72.208" fill="none" stroke="white" stroke-width="10" stroke-linejoin="round"/><circle cx="128" cy="128" r="18" fill="white" opacity=".82"/><text x="128" y="230" text-anchor="middle" font-size="42" fill="white">✹</text></g><g transform="translate(1024 1024)"><polygon points="193.157,138.515 139.577,174.583 100.210,162.113 62.000,128.000 106.662,71.923 156.804,89.603" fill="none" stroke="white" stroke-width="10" stroke-linejoin="round"/><circle cx="128" cy="128" r="18" fill="white" opacity=".82"/><text x="128" y="230" text-anchor="middle" font-size="42" fill="white">◇</text></g><g transform="translate(1280 1024)"><polygon points="186.000,128.000 147.715,186.782 92.808,179.044 86.837,119.656 99.000,77.771 151.000,88.163" fill="none" stroke="white" stroke-width="10" stroke-linejoin="round"/><circle cx="128" cy="128" r="18" fill="white" opacity=".82"/><text x="128" y="230" text-anchor="middle" font-size="42" fill="white">†</text></g><g transform="translate(1536 1024)"><polygon points="177.361,135.966 152.895,193.424 81.929,172.424 67.236,115.683 98.815,66.582 154.403,92.803" fill="none" stroke="white" stroke-width="10" stroke-linejoin="round"/><circle cx="128" cy="128" r="18" fill="white" opacity=".82"/><text x="128" y="230" text-anchor="middle" font-size="42" fill="white">⛓</text></g><g transform="translate(1792 1024)"><polygon points="189.802,132.955 145.366,197.874 81.929,172.424 57.435,113.696 115.458,77.535 156.804,89.603" fill="none" stroke="white" stroke-width="10" stroke-linejoin="round"/><circle cx="128" cy="128" r="18" fill="white" opacity=".82"/><text x="128" y="230" text-anchor="middle" font-size="42" fill="white">☾</text></g><g transform="translate(0 1280)"><polygon points="186.000,128.000 145.366,197.874 97.996,167.997 58.224,122.406 108.413,60.796 162.428,89.030" fill="none" stroke="white" stroke-width="10" stroke-linejoin="round"/><circle cx="128" cy="128" r="18" fill="white" opacity=".82"/><text x="128" y="230" text-anchor="middle" font-size="42" fill="white">♮</text></g><g transform="translate(256 1280)"><polygon points="173.853,131.676 150.050,185.947 83.742,174.231 86.837,119.656 95.000,70.842 157.000,77.771" fill="none" stroke="white" stroke-width="10" stroke-linejoin="round"/><circle cx="128" cy="128" r="18" fill="white" opacity=".82"/><text x="128" y="230" text-anchor="middle" font-size="42" fill="white">⬡</text></g><g transform="translate(512 1280)"><polygon points="171.965,129.760 150.050,185.947 80.976,177.120 65.834,112.787 110.720,87.535 166.405,76.804" fill="none" stroke="white" stroke-width="10" stroke-linejoin="round"/><circle cx="128" cy="128" r="18" fill="white" opacity=".82"/><text x="128" y="230" text-anchor="middle" font-size="42" fill="white">☠</text></g><g transform="translate(768 1280)"><polygon points="191.540,135.662 139.577,174.583 99.000,178.229 86.536,121.309 94.000,69.110 156.380,86.835" fill="none" stroke="white" stroke-width="10" stroke-linejoin="round"/><circle cx="128" cy="128" r="18" fill="white" opacity=".82"/><text x="128" y="230" text-anchor="middle" font-size="42" fill="white">☼</text></g><g transform="translate(1024 1280)"><polygon points="177.361,135.966 153.000,171.301 82.978,178.961 71.662,114.213 102.000,82.967 166.405,76.804" fill="none" stroke="white" stroke-width="10" stroke-linejoin="round"/><circle cx="128" cy="128" r="18" fill="white" opacity=".82"/><text x="128" y="230" text-anchor="middle" font-size="42" fill="white">◐</text></g><g transform="translate(1280 1280)"><polygon points="187.952,130.399 145.171,179.197 82.978,178.961 79.433,116.115 106.662,71.923 163.192,76.956" fill="none" stroke="white" stroke-width="10" stroke-linejoin="round"/><circle cx="128" cy="128" r="18" fill="white" opacity=".82"/><text x="128" y="230" text-anchor="middle" font-size="42" fill="white">⚚</text></g><g transform="translate(1536 1280)"><polygon points="197.196,147.898 142.627,171.612 97.684,165.215 62.053,125.361 105.950,70.053 173.022,77.039" fill="none" stroke="white" stroke-width="10" stroke-linejoin="round"/><circle cx="128" cy="128" r="18" fill="white" opacity=".82"/><text x="128" y="230" text-anchor="middle" font-size="42" fill="white">✷</text></g></svg>
